<svg xmlns="http://www.w3.org/2000/svg" xmlns:xlink="http://www.w3.org/1999/xlink" width="107.62" height="333" viewBox="0 0 107.62 333"><defs><style>.a{fill:rgba(0,0,0,0);stroke:#fff;stroke-miterlimit:10;stroke-width:3px;}.b{fill:#00fff7;}.c{filter:url(#e);}.d{filter:url(#c);}.e{filter:url(#a);}</style><filter id="a" x="0" y="113.315" width="106.37" height="106.37" filterUnits="userSpaceOnUse"><feOffset input="SourceAlpha"/><feGaussianBlur stdDeviation="5" result="b"/><feFlood flood-color="#5defff"/><feComposite operator="in" in2="b"/><feComposite in="SourceGraphic"/></filter><filter id="c" x="0" y="226.63" width="106.37" height="106.37" filterUnits="userSpaceOnUse"><feOffset input="SourceAlpha"/><feGaussianBlur stdDeviation="5" result="d"/><feFlood flood-color="#5defff"/><feComposite operator="in" in2="d"/><feComposite in="SourceGraphic"/></filter><filter id="e" x="1.25" y="0" width="106.37" height="106.37" filterUnits="userSpaceOnUse"><feOffset input="SourceAlpha"/><feGaussianBlur stdDeviation="5" result="f"/><feFlood flood-color="#5defff"/><feComposite operator="in" in2="f"/><feComposite in="SourceGraphic"/></filter></defs><g transform="translate(-230.88 -2935.685)"><g transform="translate(247.38 3065.5)"><g class="e" transform="matrix(1, 0, 0, 1, -16.5, -129.81)"><circle class="a" cx="36.685" cy="36.685" r="36.685" transform="translate(16.5 129.81)"/></g><path class="b" d="M126.157,40.266h-2.118a1.283,1.283,0,0,0-.28-.062,16.214,16.214,0,0,1-5.45-1.277A17.732,17.732,0,0,1,107.44,25.445c-.125-.685-.187-1.37-.28-2.055V21.3a6.125,6.125,0,0,1,.093-.747,17.268,17.268,0,0,1,4.36-9.964,17.49,17.49,0,0,1,15.322-6.041A17.071,17.071,0,0,1,137.056,9a17.638,17.638,0,0,1,5.917,11.614,16.757,16.757,0,0,1-1.246,8.563,17.738,17.738,0,0,1-13.453,10.867c-.685.125-1.37.187-2.086.28Zm-1.775-26.529v-2.46a.7.7,0,0,0-.187-.436c-1.526-1.277-3.083-2.553-4.609-3.83a.435.435,0,0,0-.467-.093,16.727,16.727,0,0,0-6.882,5.107.479.479,0,0,0-.093.529c.654,1.713,1.308,3.456,1.962,5.169a.8.8,0,0,0,.343.374c1.651.716,3.27,1.4,4.92,2.086a.423.423,0,0,0,.5-.062l4.3-3.55a.731.731,0,0,0,.218-.436v-2.46Zm1.433,0V16.2a.6.6,0,0,0,.218.436c1.433,1.152,2.865,2.273,4.3,3.425a.427.427,0,0,0,.467.062c1.651-.685,3.3-1.37,4.92-2.086a.791.791,0,0,0,.374-.4c.654-1.65,1.277-3.332,1.931-4.982a.515.515,0,0,0-.093-.592,17.085,17.085,0,0,0-6.82-5.044.472.472,0,0,0-.529.062c-1.526,1.277-3.052,2.522-4.578,3.8a.731.731,0,0,0-.218.436v2.46Zm9.779,17.935h0c.9.031,1.806.093,2.74.125a.543.543,0,0,0,.374-.187,16.049,16.049,0,0,0,2.865-8.251c0-.218-.031-.343-.218-.436l-5.138-3.269a.536.536,0,0,0-.436-.031c-1.526.654-3.052,1.277-4.578,1.962a.829.829,0,0,0-.311.343c-.592,1.931-1.152,3.892-1.713,5.823a.408.408,0,0,0,.125.4c1.028,1.09,2.055,2.148,3.083,3.207a.7.7,0,0,0,.4.187c.934.062,1.868.093,2.8.156Zm-21.145-.031h0c.872-.062,1.744-.093,2.616-.156a.662.662,0,0,0,.467-.218c1.059-1.09,2.118-2.211,3.176-3.3a.43.43,0,0,0,.125-.5c-.592-1.868-1.152-3.768-1.713-5.636a.556.556,0,0,0-.311-.343c-1.526-.654-3.021-1.308-4.547-1.962a.536.536,0,0,0-.436.031c-1.682,1.09-3.332,2.18-5.014,3.269a.418.418,0,0,0-.218.467,16.049,16.049,0,0,0,2.865,8.251.543.543,0,0,0,.374.187c.872,0,1.713-.093,2.585-.125Zm10.588-2.865h-2.709a.544.544,0,0,0-.374.125c-1.028,1-2.024,2.024-3.052,3.051a.559.559,0,0,0-.093.343c.467,1.868.965,3.737,1.464,5.574,0,.125.156.249.28.28a15.7,15.7,0,0,0,8.969.031.471.471,0,0,0,.374-.343c.467-1.775.934-3.55,1.433-5.325a.484.484,0,0,0-.125-.5c-1.028-1-2.024-2.024-3.021-3.02a.813.813,0,0,0-.529-.218h-2.585Z" transform="translate(-88.41 14.364)"/></g><g transform="translate(247.38 3178.815)"><g class="d" transform="matrix(1, 0, 0, 1, -16.5, -243.13)"><circle class="a" cx="36.685" cy="36.685" r="36.685" transform="translate(16.5 243.13)"/></g><path class="b" d="M107.04,36.547c.173-.38.346-.76.864-.691.38.069.657.449.657,1.071v5.529a1.175,1.175,0,0,1-.035.346.809.809,0,0,1-.657.726.68.68,0,0,1-.726-.484c0-.069-.069-.138-.1-.207V36.547Z" transform="translate(-93.015 -2.971)"/><path class="b" d="M133,48.29H114.374v7.119a3.476,3.476,0,0,1-.449,1.866,2.343,2.343,0,0,1-2.453,1.209,2.523,2.523,0,0,1-2.039-1.831,3.537,3.537,0,0,1-.173-1.209V36.368a3.154,3.154,0,0,1,.795-2.246,2.42,2.42,0,0,1,4.147,1.106,5.42,5.42,0,0,1,.173,1.279v7.015H133V43c0-2.384,0-4.769.035-7.153a2.54,2.54,0,0,1,2.868-2.523,2.727,2.727,0,0,1,2.177,2.453V55.3a3.436,3.436,0,0,1-.76,2.35,2.41,2.41,0,0,1-4.147-.968,5.792,5.792,0,0,1-.207-1.382V48.256Z" transform="translate(-87.198 -9.22)"/><path class="b" d="M111.862,43.164v6.566A1.936,1.936,0,0,1,110.48,51.8a2.029,2.029,0,0,1-2.73-1.935V36.46a1.937,1.937,0,0,1,1.693-2,1.969,1.969,0,0,1,2.315,1.382,3.768,3.768,0,0,1,.1.9v6.427Z" transform="translate(-91.218 -6.443)"/><path class="b" d="M122.072,43.17v6.566a1.928,1.928,0,0,1-1.451,2.073,2.012,2.012,0,0,1-2.661-1.97V36.432a1.875,1.875,0,0,1,1.659-1.97,1.978,1.978,0,0,1,2.35,1.382,3.692,3.692,0,0,1,.1.864v6.5Z" transform="translate(-65.515 -6.45)"/><path class="b" d="M121.03,39.676v2.73c0,.657-.311,1.106-.726,1.106-.449,0-.795-.415-.795-1.106V36.911c0-.657.311-1.071.76-1.071s.76.449.76,1.14Z" transform="translate(-61.651 -2.991)"/></g><g transform="translate(248.63 2952.185)"><g class="c" transform="matrix(1, 0, 0, 1, -17.75, -16.5)"><circle class="a" cx="36.685" cy="36.685" r="36.685" transform="translate(17.75 16.5)"/></g><path class="b" d="M107.07,85.049V83.7a2.276,2.276,0,0,1,.071-.484,62.027,62.027,0,0,1,1.172-7.637,43.439,43.439,0,0,1,3.621-10.229,12.967,12.967,0,0,1,2.7-3.767,5.766,5.766,0,0,1,2.2-1.382,24,24,0,0,1,3.479-.76c.462-.069.888-.1,1.349-.173h.639c.533.035,1.065.069,1.562.138a3.745,3.745,0,0,1,3.089,2.108,10.4,10.4,0,0,1,.462,1.106c.035.138.142.173.284.207a31.2,31.2,0,0,0,4.4,0,.236.236,0,0,0,.248-.173c.142-.346.284-.691.426-1a3.38,3.38,0,0,1,2.556-2.073A14.685,14.685,0,0,1,137,59.374a19.371,19.371,0,0,1,4.9.553,5.826,5.826,0,0,1,2.911,1.382c.462.449.923.9,1.349,1.382a15.931,15.931,0,0,1,2.166,3.663,49.56,49.56,0,0,1,4.367,17.727,4.974,4.974,0,0,1-.178,1.762,6.006,6.006,0,0,1-6.817,4.009,6.089,6.089,0,0,1-2.627-1.106,10.977,10.977,0,0,1-2.414-2.35c-1.278-1.624-2.556-3.248-3.763-4.872a4.532,4.532,0,0,0-2.414-1.659,15.169,15.169,0,0,0-5.148-.657,14,14,0,0,0-4.3.726,4.049,4.049,0,0,0-2.024,1.451c-.568.76-1.172,1.52-1.74,2.281a48.868,48.868,0,0,1-3.2,3.939,7.37,7.37,0,0,1-2.876,1.935,6.153,6.153,0,0,1-5.432-.484,5.288,5.288,0,0,1-2.592-3.352c-.036-.207-.071-.38-.107-.587Zm42.923-.933V83.8c-.142-1.831-.426-3.663-.71-5.46a41.428,41.428,0,0,0-3.657-11.369,13.584,13.584,0,0,0-1.953-3.11,3.788,3.788,0,0,0-1.953-1.244A17.325,17.325,0,0,0,137.5,62a8.01,8.01,0,0,0-1.562.173.7.7,0,0,0-.568.415c-.142.276-.284.587-.462.864a12.755,12.755,0,0,1-.675,1.175,1.965,1.965,0,0,1-1.562.829,43.834,43.834,0,0,1-5.219.035,2.512,2.512,0,0,1-2.343-1.52c-.071-.173-.178-.346-.249-.518a7.191,7.191,0,0,0-.462-.9.77.77,0,0,0-.355-.311,4.387,4.387,0,0,0-1.633-.276,17.935,17.935,0,0,0-4.3.657,4,4,0,0,0-2.237,1.52c-.32.449-.675.933-.959,1.417a38.86,38.86,0,0,0-3.87,10.159c-.426,1.935-.746,3.87-1.03,5.84-.142,1.071-.178,2.177-.249,3.283a1.529,1.529,0,0,0,.106.553,3.369,3.369,0,0,0,4.509,1.659,6.088,6.088,0,0,0,2.379-1.935c1.42-1.831,2.84-3.663,4.225-5.494a5.49,5.49,0,0,1,1.42-1.279,11.216,11.216,0,0,1,4.367-1.555,21.61,21.61,0,0,1,3.657-.173,13.479,13.479,0,0,1,5.112.864,7.228,7.228,0,0,1,3.444,2.488c1.278,1.728,2.627,3.421,3.941,5.114a6.292,6.292,0,0,0,2.343,1.935c2.272,1.071,5.006-.622,4.686-2.834Z" transform="translate(-93.179 -37.892)"/><path class="b" d="M112.129,64.109v-.346A16.845,16.845,0,0,1,112.2,61.9a.536.536,0,0,1,.553-.587h2.8c.415,0,.518.207.587.587.035.415.035.829.069,1.244v.968h1.97c.587,0,.76.173.795.76v2.523c0,.449-.207.622-.657.657-.484,0-.968.035-1.486.035h-.622c0,.484,0,.933-.035,1.382a6.942,6.942,0,0,1-.035.864.472.472,0,0,1-.484.484,6.746,6.746,0,0,1-.795.069c-.657,0-1.313,0-2-.035-.449,0-.587-.207-.622-.691V68.118h-.311c-.622,0-1.209-.035-1.831-.069a.7.7,0,0,1-.76-.726c0-.829,0-1.693.035-2.523,0-.484.207-.657.691-.657.587,0,1.209,0,1.8-.035h.276Zm5.494,1.313h-2a.718.718,0,0,1-.795-.76V62.623h-1.382v2.212a.538.538,0,0,1-.518.553c-.276,0-.553.035-.829.035h-1.417V66.77h.346c.587,0,1.209,0,1.8.035.449,0,.657.242.657.691v2.073h1.348V67.5a.627.627,0,0,1,.622-.657h2.177V65.491Z" transform="translate(-87.206 -32.952)"/><path class="b" d="M117.509,65.257a2.1,2.1,0,0,1-2.039-2.073,2.029,2.029,0,0,1,2.039-2.073,1.951,1.951,0,0,1,2.108,2.073,2.052,2.052,0,0,1-2.108,2.108Zm.76-2.073c0-.553-.276-.726-.76-.795-.346-.035-.726.415-.726.795a.8.8,0,0,0,.76.795C118.027,63.979,118.269,63.7,118.269,63.184Z" transform="translate(-71.783 -33.499)"/><path class="b" d="M116.538,62.111a1.971,1.971,0,0,1,2.039,2,2.045,2.045,0,0,1-2.073,2.108,2.079,2.079,0,0,1-2.073-2.073A2.01,2.01,0,0,1,116.538,62.111Zm-.035,2.8a.767.767,0,0,0,.76-.76.754.754,0,0,0-.795-.76.76.76,0,0,0,0,1.52Z" transform="translate(-74.402 -30.982)"/><path class="b" d="M117.533,67.2a2.056,2.056,0,0,1-.035-4.112,2.073,2.073,0,1,1,0,4.147Zm.726-2.039a.71.71,0,0,0-.726-.795.794.794,0,0,0-.795.726.828.828,0,0,0,.795.795.663.663,0,0,0,.691-.726Z" transform="translate(-71.809 -28.514)"/><path class="b" d="M120.6,64.173a2.074,2.074,0,0,1-4.147.035,2.1,2.1,0,0,1,2.039-2.108,2.058,2.058,0,0,1,2.108,2.039Zm-2.073.76a.726.726,0,0,0,.76-.76.778.778,0,1,0-1.555,0,.767.767,0,0,0,.76.76Z" transform="translate(-69.316 -31.006)"/></g></g></svg>