<svg xmlns="http://www.w3.org/2000/svg" xmlns:xlink="http://www.w3.org/1999/xlink" width="379.962" height="320.086" viewBox="0 0 379.962 320.086"><defs><style>.a,.b,.d{fill:none;stroke-miterlimit:10;}.a{stroke:#4e4e4e;}.a,.d{stroke-width:3px;}.c{fill:#00fff7;}.d{stroke:#fff;}.e,.f{stroke:none;}.f{fill:#fff;}.g{filter:url(#q);}.h{filter:url(#o);}.i{filter:url(#m);}.j{filter:url(#k);}.k{filter:url(#i);}.l{filter:url(#g);}.m{filter:url(#e);}.n{filter:url(#c);}.o{filter:url(#a);}</style><filter id="a" x="182.185" y="0" width="55.765" height="55.804" filterUnits="userSpaceOnUse"><feOffset input="SourceAlpha"/><feGaussianBlur stdDeviation="3" result="b"/><feFlood flood-color="#5defff"/><feComposite operator="in" in2="b"/><feComposite in="SourceGraphic"/></filter><filter id="c" x="285.597" y="112.302" width="94.326" height="94.326" filterUnits="userSpaceOnUse"><feOffset input="SourceAlpha"/><feGaussianBlur stdDeviation="3" result="d"/><feFlood flood-color="#5defff"/><feComposite operator="in" in2="d"/><feComposite in="SourceGraphic"/></filter><filter id="e" x="144.782" y="222.577" width="92.769" height="92.769" filterUnits="userSpaceOnUse"><feOffset input="SourceAlpha"/><feGaussianBlur stdDeviation="3" result="f"/><feFlood flood-color="#5defff"/><feComposite operator="in" in2="f"/><feComposite in="SourceGraphic"/></filter><filter id="g" x="156.701" y="110.688" width="80.85" height="92.769" filterUnits="userSpaceOnUse"><feOffset input="SourceAlpha"/><feGaussianBlur stdDeviation="3" result="h"/><feFlood flood-color="#5defff"/><feComposite operator="in" in2="h"/><feComposite in="SourceGraphic"/></filter><filter id="i" x="322.28" y="225.717" width="57.682" height="74.793" filterUnits="userSpaceOnUse"><feOffset input="SourceAlpha"/><feGaussianBlur stdDeviation="3" result="j"/><feFlood flood-color="#5defff"/><feComposite operator="in" in2="j"/><feComposite in="SourceGraphic"/></filter><filter id="k" x="0" y="0.451" width="94.328" height="94.328" filterUnits="userSpaceOnUse"><feOffset input="SourceAlpha"/><feGaussianBlur stdDeviation="3" result="l"/><feFlood flood-color="#5defff"/><feComposite operator="in" in2="l"/><feComposite in="SourceGraphic"/></filter><filter id="m" x="285.597" y="0.451" width="94.326" height="94.327" filterUnits="userSpaceOnUse"><feOffset input="SourceAlpha"/><feGaussianBlur stdDeviation="3" result="n"/><feFlood flood-color="#5defff"/><feComposite operator="in" in2="n"/><feComposite in="SourceGraphic"/></filter><filter id="o" x="26.589" y="225.759" width="67.739" height="94.328" filterUnits="userSpaceOnUse"><feOffset input="SourceAlpha"/><feGaussianBlur stdDeviation="3" result="p"/><feFlood flood-color="#5defff"/><feComposite operator="in" in2="p"/><feComposite in="SourceGraphic"/></filter><filter id="q" x="36.645" y="112.266" width="57.683" height="77.681" filterUnits="userSpaceOnUse"><feOffset input="SourceAlpha"/><feGaussianBlur stdDeviation="3" result="r"/><feFlood flood-color="#5defff"/><feComposite operator="in" in2="r"/><feComposite in="SourceGraphic"/></filter></defs><g transform="translate(-1403.688 -738.413)"><ellipse class="a" cx="35.903" cy="35.903" rx="35.903" ry="35.903" transform="translate(1558.97 749.278)"/><g class="o" transform="matrix(1, 0, 0, 1, 1403.69, 738.41)"><g class="b" transform="translate(154.39 8.28)"><path class="e" d="M74.565,38.485H36.8V.72a37.771,37.771,0,0,1,37.765,37.8Z"/><path class="f" d="M 71.43598937988281 35.48527526855469 C 71.12418365478516 31.84542465209961 70.24958038330078 28.31161689758301 68.82453918457031 24.94486236572266 C 67.07206726074219 20.80448722839355 64.56439971923828 17.08644866943359 61.37118911743164 13.8940486907959 C 58.1786003112793 10.70224857330322 54.46187591552734 8.196949005126953 50.32425308227539 6.447723865509033 C 46.96167755126953 5.026159286499023 43.43304061889648 4.154964447021484 39.80000305175781 3.846523284912109 L 39.80000305175781 35.48527526855469 L 71.43598937988281 35.48527526855469 M 74.56529998779297 38.5244255065918 L 74.56529235839844 38.50251388549805 C 74.56529998779297 38.51016616821289 74.56529998779297 38.51676940917969 74.56529998779297 38.5244255065918 Z M 74.56529235839844 38.50251388549805 C 74.56529235839844 38.49741363525391 74.56528472900391 38.49037551879883 74.56527709960938 38.48527526855469 L 74.56529235839844 38.48527526855469 L 74.56529235839844 38.50251388549805 Z M 74.56529235839844 38.48527526855469 L 36.80000305175781 38.48527526855469 L 36.80000305175781 0.7199989557266235 C 57.64624404907227 0.7199989557266235 74.54466247558594 17.60480308532715 74.56527709960938 38.48527526855469 Z"/></g></g><ellipse cx="34.899" cy="34.899" rx="34.899" ry="34.899" transform="translate(1559.974 750.318)"/><path class="c" d="M38.791,25.214,37.044,31.5H31.32L38.79,7.04h7.247L53.62,31.5H47.673l-1.9-6.281ZM45,21.052l-1.524-5.2c-.446-1.45-.855-3.271-1.227-4.72h-.074c-.372,1.449-.743,3.308-1.115,4.72l-1.449,5.2H45Z" transform="translate(1543.186 765.764)"/><path class="c" d="M42.98,19.768c.186,2.267,2.416,3.382,5.017,3.382a15.291,15.291,0,0,0,4.906-.743l.743,3.754a17.149,17.149,0,0,1-6.43,1.078c-6.021,0-9.477-3.494-9.477-9.031,0-4.5,2.787-9.477,8.957-9.477,5.724,0,7.916,4.46,7.916,8.846a13.286,13.286,0,0,1-.186,2.193Zm6.5-3.754c0-1.338-.595-3.605-3.122-3.605-2.3,0-3.271,2.118-3.419,3.605Z" transform="translate(1560.627 770.355)"/><circle class="a" cx="36.682" cy="36.682" r="36.682" transform="translate(1699.785 861.177)"/><g class="n" transform="matrix(1, 0, 0, 1, 1403.69, 738.41)"><path class="d" d="M127.276,64.134a36.663,36.663,0,1,1-69.415-16.48L90.632,62.046V27.49a36.65,36.65,0,0,1,36.644,36.682Z" transform="translate(242.15 95.31)"/></g><ellipse cx="35.657" cy="35.657" rx="35.657" ry="35.657" transform="translate(1700.81 862.203)"/><path class="c" d="M59.408,34.352a45.085,45.085,0,0,1,7.633-.532c3.456,0,5.962.684,7.633,2.013A7.285,7.285,0,0,1,77.331,41.6a7.862,7.862,0,0,1-2.316,5.924c-1.937,1.823-4.785,2.62-8.126,2.62a9.822,9.822,0,0,1-1.937-.114v8.924H59.37V34.314ZM64.99,45.706a8.469,8.469,0,0,0,1.9.152c3,0,4.861-1.519,4.861-4.063,0-2.316-1.595-3.683-4.4-3.683a9.105,9.105,0,0,0-2.316.228v7.367Z" transform="translate(1660.997 851.432)"/><ellipse class="a" cx="35.903" cy="35.903" rx="35.903" ry="35.903" transform="translate(1558.97 971.491)"/><g class="m" transform="matrix(1, 0, 0, 1, 1403.69, 738.41)"><path class="d" d="M98.909,90.473a35.884,35.884,0,1,1-70.171-10.63l34.3,10.221V54.57a35.872,35.872,0,0,1,35.866,35.9Z" transform="translate(128.14 178.51)"/></g><ellipse cx="34.899" cy="34.899" rx="34.899" ry="34.899" transform="translate(1559.974 972.494)"/><path class="c" d="M40.021,79.174l-1.747,6.281H32.55L40.02,61h7.248L54.85,85.456H48.9l-1.9-6.281Zm6.207-4.163-1.524-5.2c-.446-1.45-.855-3.271-1.227-4.72H43.4c-.372,1.45-.743,3.308-1.115,4.72l-1.45,5.2Z" transform="translate(1546.527 934.389)"/><path class="c" d="M45.126,63.507a2.758,2.758,0,0,1-2.973,2.75,2.644,2.644,0,0,1-2.862-2.75,2.7,2.7,0,0,1,2.9-2.788A2.755,2.755,0,0,1,45.126,63.507ZM39.439,86.179V68.451h5.5V86.179Z" transform="translate(1564.837 933.628)"/><ellipse class="a" cx="35.903" cy="35.903" rx="35.903" ry="35.903" transform="translate(1558.97 859.564)"/><g class="l" transform="matrix(1, 0, 0, 1, 1403.69, 738.41)"><path class="d" d="M89.781,63.516A35.867,35.867,0,0,1,30.5,90.722l23.415-29.51V27.65a35.872,35.872,0,0,1,35.866,35.9Z" transform="translate(137.27 93.54)"/></g><ellipse cx="34.899" cy="34.899" rx="34.899" ry="34.899" transform="translate(1559.974 860.568)"/><path class="c" d="M38.65,52.134,36.9,58.416H31.18L38.65,33.96H45.9L53.48,58.416H47.533l-1.9-6.281H38.65Zm6.207-4.125-1.524-5.2c-.446-1.449-.855-3.271-1.227-4.72h-.074c-.372,1.449-.743,3.308-1.115,4.72l-1.449,5.2Z" transform="translate(1542.805 849.093)"/><circle class="a" cx="36.682" cy="36.682" r="36.682" transform="translate(1699.785 974.631)"/><g class="k" transform="matrix(1, 0, 0, 1, 1403.69, 738.41)"><path class="d" d="M100.292,90.922a36.261,36.261,0,0,1-4.025,16.67L63.61,93.239v-39a36.683,36.683,0,0,1,36.682,36.682Z" transform="translate(269.17 181.98)"/></g><ellipse cx="35.657" cy="35.657" rx="35.657" ry="35.657" transform="translate(1700.81 975.846)"/><path class="c" d="M54.649,47.812c0,2.3.074,4.2.149,5.686H50l-.26-2.49h-.111a6.342,6.342,0,0,1-5.538,2.9c-3.605,0-6.244-2.267-6.244-7.731V35.77h5.538v9.552c0,2.564.818,4.125,2.75,4.125a2.978,2.978,0,0,0,2.936-3.122V35.77h5.538V47.812Z" transform="translate(1560.925 854.01)"/><path class="c" d="M73.442,70.194h-7.4a2.906,2.906,0,0,1-1.139-.228,1.39,1.39,0,0,1-.646-2.051,2.558,2.558,0,0,1,2.316-1.329H81.3a.543.543,0,0,0,.38-.114,1.652,1.652,0,0,0-.266-.228c-1.519-1.215-3-2.43-4.519-3.683a1.287,1.287,0,0,1,.114-2.24,2.579,2.579,0,0,1,2.886.038c3.987,3.076,8.012,6.114,11.962,9.19A11.148,11.148,0,0,1,96.112,76.8a10.988,10.988,0,0,1-3.418,9.759,12.952,12.952,0,0,1-7.253,3.607,13.624,13.624,0,0,1-9.911-2.051,11.725,11.725,0,0,1-5.05-6.873,6.864,6.864,0,0,1-.19-2.772v-.114l-.038-.076c-.076.038-.152.114-.228.152-2.316,1.9-4.671,3.8-6.987,5.734a3.376,3.376,0,0,1-2.43.873A1.96,1.96,0,0,1,58.746,82.5,3.389,3.389,0,0,1,60,80.675L73.214,70.536a1.006,1.006,0,0,1,.228-.19v-.114Zm9.683,14.544h.532a2.874,2.874,0,0,0,.57-.038,7.918,7.918,0,0,0,5.088-2.544A6.729,6.729,0,0,0,90.53,74.6a7.844,7.844,0,0,0-6.873-4.4,7.953,7.953,0,0,0-4.9,1.215,7.175,7.175,0,0,0-3.607,5.734,6.4,6.4,0,0,0,1.1,4.063A7.964,7.964,0,0,0,83.125,84.738Z" transform="translate(1659.038 936.22)"/><ellipse class="a" cx="36.683" cy="36.683" rx="36.683" ry="36.683" transform="translate(1414.15 749.326)"/><g class="j" transform="matrix(1, 0, 0, 1, 1403.69, 738.41)"><path class="d" d="M73.658,37.365A36.664,36.664,0,1,1,20.912,4.4L36.975,37.365V.72A36.683,36.683,0,0,1,73.658,37.4Z" transform="translate(10.17 10.23)"/></g><ellipse cx="35.658" cy="35.658" rx="35.658" ry="35.658" transform="translate(1415.175 750.351)"/><path class="c" d="M6.05,7.08h5.658V27.32h9.949v4.747H6.05V7.08Z" transform="translate(1429.859 766.435)"/><path class="c" d="M11.1,15.16c0-2.658-.076-4.4-.152-5.962h4.861L16,12.539h.152a5.346,5.346,0,0,1,4.9-3.759,5.569,5.569,0,0,1,1.177.076v5.316a7.834,7.834,0,0,0-1.519-.152,3.631,3.631,0,0,0-3.873,2.848,6.4,6.4,0,0,0-.114,1.253v9.19H11.1V15.16Z" transform="translate(1443.566 771.191)"/><circle class="a" cx="36.682" cy="36.682" r="36.682" transform="translate(1699.785 749.326)"/><g class="i" transform="matrix(1, 0, 0, 1, 1403.69, 738.41)"><path class="d" d="M127.276,37.364a36.663,36.663,0,1,1-43.1-36.113l6.417,36.037V.72A36.683,36.683,0,0,1,127.276,37.4Z" transform="translate(242.15 10.23)"/></g><circle cx="35.657" cy="35.657" r="35.657" transform="translate(1700.81 750.351)"/><path class="c" d="M73.215,32.2l-2.278-4.519c-.911-1.747-1.519-3.038-2.24-4.481h-.076c-.532,1.443-1.139,2.734-1.937,4.481L64.6,32.2H58.14l7.215-12.645L58.368,7.21h6.493l2.2,4.557c.759,1.519,1.291,2.734,1.9,4.139h.076c.608-1.595,1.063-2.7,1.709-4.139L72.874,7.21h6.455L72.3,19.4l7.4,12.8H73.177Z" transform="translate(1657.556 766.799)"/><ellipse class="a" cx="36.683" cy="36.683" rx="36.683" ry="36.683" transform="translate(1414.15 974.634)"/><g class="h" transform="matrix(1, 0, 0, 1, 1403.69, 738.41)"><path class="d" d="M53.824,90.933a36.651,36.651,0,0,1-36.683,36.645,35.768,35.768,0,0,1-9.721-1.329l9.721-36.075V54.25A36.683,36.683,0,0,1,53.824,90.933Z" transform="translate(30 182.01)"/></g><ellipse cx="35.658" cy="35.658" rx="35.658" ry="35.658" transform="translate(1415.175 975.659)"/><path class="c" d="M5.638,61.072a45.089,45.089,0,0,1,7.633-.532c3.456,0,5.962.684,7.633,2.013a7.285,7.285,0,0,1,2.658,5.772,7.862,7.862,0,0,1-2.316,5.924c-1.937,1.823-4.785,2.62-8.126,2.62a9.824,9.824,0,0,1-1.937-.114v8.924H5.6V61.034ZM11.22,72.426a8.469,8.469,0,0,0,1.9.152c3,0,4.861-1.519,4.861-4.063,0-2.316-1.595-3.683-4.4-3.683a9.1,9.1,0,0,0-2.316.228v7.367Z" transform="translate(1428.6 938.018)"/><path class="c" d="M11.737,75.913A10.777,10.777,0,0,0,16.6,77.28c1.671,0,2.392-.608,2.392-1.519s-.57-1.367-2.658-2.089c-3.759-1.253-5.2-3.3-5.164-5.468,0-3.38,2.886-5.924,7.367-5.924a12.686,12.686,0,0,1,5.126,1.025l-.987,3.911a8.613,8.613,0,0,0-3.911-1.025c-1.367,0-2.165.57-2.165,1.481,0,.835.722,1.291,2.924,2.089,3.456,1.177,4.9,2.924,4.937,5.582,0,3.38-2.658,5.848-7.861,5.848a13.107,13.107,0,0,1-5.848-1.253l.987-4.025Z" transform="translate(1443.007 942.885)"/><ellipse class="a" cx="36.683" cy="36.683" rx="36.683" ry="36.683" transform="translate(1414.15 861.179)"/><g class="g" transform="matrix(1, 0, 0, 1, 1403.69, 738.41)"><path class="d" d="M46.663,64.163A36.274,36.274,0,0,1,41.119,83.53L9.98,61.77V27.48A36.683,36.683,0,0,1,46.663,64.163Z" transform="translate(37.16 95.29)"/></g><ellipse cx="35.658" cy="35.658" rx="35.658" ry="35.658" transform="translate(1415.175 862.204)"/><path class="c" d="M11.958,33.97V58.957H6.3V33.97Z" transform="translate(1430.558 851.398)"/><path class="c" d="M27.337,33.62V54.544c0,2.051.076,4.177.152,5.43H22.477l-.266-2.658h-.076a6.292,6.292,0,0,1-5.658,3.076c-4.291,0-7.747-3.683-7.747-9.3,0-6.114,3.8-9.645,8.126-9.645,2.24,0,3.949.759,4.785,2.051h.076V33.658h5.62Zm-5.62,15.873a4.169,4.169,0,0,0-.076-.987,3.387,3.387,0,0,0-3.3-2.772c-2.544,0-3.911,2.316-3.911,5.164,0,3.076,1.519,5.013,3.873,5.013a3.3,3.3,0,0,0,3.266-2.7,4.634,4.634,0,0,0,.152-1.291V49.569Z" transform="translate(1437.356 850.875)"/><path class="c" d="M65.022,41.95c0-2.658-.076-4.4-.152-5.962h4.861l.19,3.342h.152a5.346,5.346,0,0,1,4.9-3.759,5.57,5.57,0,0,1,1.177.076v5.316a7.833,7.833,0,0,0-1.519-.152,3.631,3.631,0,0,0-3.873,2.848,6.4,6.4,0,0,0-.114,1.253V54.1h-5.62V41.95Z" transform="translate(1676.382 856.328)"/><path class="c" d="M73.971,67.992a4.3,4.3,0,0,1-1.937,3.456,5.422,5.422,0,0,1-6.683-.3,4.3,4.3,0,0,1-.19-6.417,5.37,5.37,0,0,1,8.164.911,4.352,4.352,0,0,1,.608,2.354Z" transform="translate(1673.433 945.599)"/><path class="c" d="M82.737,6.85V27.773c0,2.051.076,4.177.152,5.43H77.876l-.266-2.658h-.076a6.292,6.292,0,0,1-5.658,3.076c-4.291,0-7.747-3.683-7.747-9.3,0-6.114,3.8-9.645,8.126-9.645,2.24,0,3.949.759,4.785,2.051h.076V6.888h5.62ZM77.079,22.723A4.169,4.169,0,0,0,77,21.736a3.387,3.387,0,0,0-3.3-2.772c-2.544,0-3.911,2.316-3.911,5.164,0,3.076,1.519,5.012,3.873,5.012a3.3,3.3,0,0,0,3.266-2.7,4.634,4.634,0,0,0,.152-1.291V22.8Z" transform="translate(1674.312 765.792)"/></g></svg>