<?xml version="1.0" encoding="UTF-8"?><svg id="Layer_1" xmlns="http://www.w3.org/2000/svg" viewBox="0 0 1920 1080"><defs><style>.cls-1{fill:aqua;}</style></defs><path class="cls-1" d="M1210.78,265.64c12.05,3.87,19.69,11.6,23.56,23.56v11.78l-7.46,13.44-176.36,176.27c-27.69,21.26-62.49-13.53-41.22-41.22l176.27-176.36,13.44-7.46h11.78,0Z"/><path class="cls-1" d="M721,265.64l13.44,7.46,176.27,176.36c21.26,27.69-13.53,62.49-41.22,41.22l-176.36-176.27-7.46-13.44v-11.78c3.87-11.96,11.55-19.69,23.56-23.56h11.78Z"/><path class="cls-1" d="M721,814.36h-11.78c-11.96-3.87-19.69-11.55-23.56-23.56v-11.78l7.46-13.44,176.36-176.27c27.69-21.26,62.49,13.53,41.22,41.22l-176.27,176.36-13.44,7.46h0Z"/><path class="cls-1" d="M1234.34,778.98v11.78c-3.87,12.05-11.6,19.69-23.56,23.56h-11.78l-13.44-7.46-176.27-176.36c-21.26-27.69,13.53-62.49,41.22-41.22l176.36,176.27,7.46,13.44h0Z"/></svg>